<?xml version="1.0" encoding="UTF-8"?>
<svg id="uuid-cabeb6f4-9ef5-4ce7-b947-fc3ab5ae892d" data-name="Capa_1" xmlns="http://www.w3.org/2000/svg" xmlns:xlink="http://www.w3.org/1999/xlink" viewBox="0 0 308 131">
  <defs>
    <style>
      .uuid-485e58ba-6258-443d-840f-d2fee87969ae {
        fill: url(#uuid-12d1671e-9104-42b1-873e-e451c01deef6);
      }

      .uuid-53d549b4-9f9c-40de-a441-7adbbc1ff735 {
        fill: url(#uuid-935e6426-63de-4979-adaa-d7a4ed45f21b);
      }

      .uuid-b37ec7b3-c500-44d7-a732-cfaca7cd7f1f {
        fill: #fcd42d;
      }
    </style>
    <linearGradient id="uuid-935e6426-63de-4979-adaa-d7a4ed45f21b" data-name="Degradado sin nombre 3" x1="110.33" y1="48.22" x2="195.1" y2="48.22" gradientUnits="userSpaceOnUse">
      <stop offset="0" stop-color="#e61b72"/>
      <stop offset="1" stop-color="#2d2e82"/>
    </linearGradient>
    <linearGradient id="uuid-12d1671e-9104-42b1-873e-e451c01deef6" data-name="Degradado sin nombre 3" x1="180.95" y1="27.24" x2="180.97" y2="27.24" xlink:href="#uuid-935e6426-63de-4979-adaa-d7a4ed45f21b"/>
  </defs>
  <g>
    <path d="M54.31,123.07h-.81l2.39-5.62h.69l2.38,5.62h-.81l-.84-1.99h-2.16l-.84,1.99ZM55.46,120.35h1.56l-.78-1.8-.77,1.8Z"/>
    <path d="M64.87,120.24c0,.4-.08.77-.23,1.12-.15.35-.36.66-.61.92-.26.26-.56.47-.91.62-.35.15-.73.23-1.13.23s-.77-.08-1.12-.23-.66-.36-.92-.62-.47-.57-.62-.92c-.15-.35-.23-.73-.23-1.12s.08-.77.23-1.13c.15-.35.36-.66.63-.92s.57-.47.93-.62c.36-.15.74-.23,1.14-.23.47,0,.89.11,1.28.33.39.22.77.55,1.14,1l-.58.47c-.29-.36-.59-.63-.89-.8-.3-.17-.62-.25-.96-.25-.3,0-.59.06-.85.17-.27.11-.5.27-.69.46-.2.19-.35.42-.47.68s-.17.54-.17.84.06.58.17.84.27.49.46.68.42.35.68.46.54.17.84.17c.26,0,.51-.04.75-.13s.45-.21.64-.37c.19-.16.34-.35.47-.56s.21-.45.24-.71h-1.47v-.74h2.26v.37Z"/>
    <path d="M69.04,123.07h-3.47v-5.62h3.47v.74h-2.74v1.7h2.26v.74h-2.26v1.71h2.74v.74Z"/>
    <path d="M73.95,117.45v5.62h-.7l-2.82-4.2v4.2h-.73v-5.62h.69l2.82,4.21v-4.21h.74Z"/>
    <path d="M77.55,123.15c-.4,0-.78-.08-1.14-.23-.35-.15-.66-.36-.92-.62s-.47-.57-.62-.92c-.15-.35-.23-.73-.23-1.12s.08-.78.23-1.13c.15-.35.36-.66.62-.92.26-.26.57-.47.92-.62.35-.15.73-.23,1.14-.23.15,0,.3.01.45.04.15.03.3.07.44.12.15.05.3.12.47.21.16.09.34.19.52.31l-.41.62c-.29-.21-.55-.36-.79-.44s-.46-.12-.69-.12c-.3,0-.58.06-.84.17-.27.11-.5.27-.69.46-.19.19-.35.42-.46.68s-.17.54-.17.84.06.58.17.84.27.49.46.68c.19.19.42.35.69.46.27.11.55.17.84.17.12,0,.24-.01.35-.03s.22-.05.34-.1c.12-.04.24-.1.36-.17.13-.07.27-.16.42-.26l.41.62c-.18.12-.36.23-.51.31s-.31.15-.46.21-.3.09-.44.12c-.15.03-.3.04-.46.04Z"/>
    <path d="M80.86,123.07h-.73v-5.62h.73v5.62Z"/>
    <path d="M82.12,123.07h-.81l2.39-5.62h.69l2.38,5.62h-.81l-.84-1.99h-2.16l-.84,1.99ZM83.27,120.35h1.56l-.78-1.8-.77,1.8Z"/>
    <path d="M93.51,120.26c0,.38-.07.75-.22,1.09-.15.34-.35.64-.6.89s-.55.46-.89.61c-.34.15-.7.22-1.09.22h-1.5v-5.62h1.5c.38,0,.75.07,1.09.22.34.15.64.35.89.61.25.26.45.55.6.89.15.34.22.7.22,1.09ZM90.69,122.33c.29,0,.56-.05.81-.16s.47-.26.66-.44c.19-.19.34-.41.45-.66s.16-.52.16-.8-.06-.56-.16-.81c-.11-.25-.26-.47-.45-.66s-.41-.34-.66-.45-.52-.16-.81-.16h-.74v4.14h.74Z"/>
    <path d="M97.7,123.07h-3.47v-5.62h3.47v.74h-2.74v1.7h2.26v.74h-2.26v1.71h2.74v.74Z"/>
    <path d="M102.41,117.45c.28,0,.55.05.79.16.25.11.46.25.64.44.18.18.33.4.43.64.1.25.16.51.16.78s-.05.54-.16.78c-.11.25-.25.46-.44.64s-.4.33-.64.43c-.25.11-.51.16-.78.16h-1.31v1.57h-.74v-5.62h2.05ZM102.41,120.76c.18,0,.35-.03.5-.1s.29-.16.41-.28c.11-.12.21-.25.28-.41s.1-.32.1-.5-.03-.35-.1-.5-.16-.29-.28-.41c-.11-.12-.25-.21-.41-.28-.16-.07-.32-.1-.5-.1h-1.31v2.58h1.31Z"/>
    <path d="M107.16,122.41c.19,0,.38-.04.55-.11.17-.07.33-.18.46-.3.13-.13.23-.28.31-.45s.11-.36.11-.55v-3.54h.74v3.54c0,.3-.06.58-.17.84s-.27.49-.46.69c-.19.19-.42.35-.69.46s-.54.17-.84.17-.58-.06-.84-.17c-.26-.11-.49-.27-.69-.46-.19-.19-.35-.42-.46-.69s-.17-.54-.17-.84v-3.54h.74v3.54c0,.19.04.38.11.55s.18.32.31.45c.13.13.28.23.46.3s.36.11.55.11Z"/>
    <path d="M113.24,119.95c.13.04.26.11.38.2.12.09.22.21.31.33.09.13.16.27.21.43.05.16.08.32.08.49,0,.22-.04.43-.13.63-.08.2-.2.38-.35.53s-.32.27-.52.36c-.2.09-.41.13-.64.13h-2.39v-5.62h1.99c.21,0,.41.04.59.12s.34.19.48.33c.14.14.24.3.32.48.08.18.12.38.12.58,0,.19-.04.37-.11.54s-.18.32-.31.44ZM110.91,119.75h1.23c.11,0,.21-.02.31-.06.1-.04.18-.1.26-.17.07-.07.13-.16.17-.25.04-.1.06-.2.06-.31s-.02-.21-.06-.3c-.04-.09-.1-.17-.17-.25s-.16-.13-.25-.17c-.1-.04-.2-.06-.31-.06h-1.23v1.57ZM112.54,122.34c.13,0,.25-.02.36-.07.11-.05.21-.11.3-.2s.15-.18.2-.3c.05-.11.07-.23.07-.36s-.02-.24-.07-.35-.11-.21-.2-.3-.18-.15-.3-.2-.23-.07-.36-.07h-1.63v1.85h1.63Z"/>
    <path d="M118.17,123.07h-3.29v-5.62h.73v4.88h2.56v.74Z"/>
    <path d="M119.49,123.07h-.73v-5.62h.73v5.62Z"/>
    <path d="M123.09,123.15c-.4,0-.78-.08-1.14-.23-.35-.15-.66-.36-.92-.62s-.47-.57-.62-.92c-.15-.35-.23-.73-.23-1.12s.08-.78.23-1.13c.15-.35.36-.66.62-.92.26-.26.57-.47.92-.62.35-.15.73-.23,1.14-.23.15,0,.3.01.45.04.15.03.3.07.44.12.15.05.3.12.47.21.16.09.34.19.52.31l-.41.62c-.29-.21-.55-.36-.79-.44s-.46-.12-.69-.12c-.3,0-.58.06-.84.17-.27.11-.5.27-.69.46-.19.19-.35.42-.46.68s-.17.54-.17.84.06.58.17.84.27.49.46.68c.19.19.42.35.69.46.27.11.55.17.84.17.12,0,.24-.01.35-.03s.22-.05.34-.1c.12-.04.24-.1.36-.17.13-.07.27-.16.42-.26l.41.62c-.18.12-.36.23-.51.31s-.31.15-.46.21-.3.09-.44.12c-.15.03-.3.04-.46.04Z"/>
    <path d="M126.41,123.07h-.73v-5.62h.73v5.62Z"/>
    <path d="M131.6,120.26c0,.38-.07.75-.22,1.09-.15.34-.35.64-.6.89s-.55.46-.89.61c-.34.15-.7.22-1.09.22h-1.5v-5.62h1.5c.38,0,.75.07,1.09.22.34.15.64.35.89.61.25.26.45.55.6.89.15.34.22.7.22,1.09ZM128.77,122.33c.29,0,.56-.05.81-.16s.47-.26.66-.44c.19-.19.34-.41.45-.66s.16-.52.16-.8-.06-.56-.16-.81c-.11-.25-.26-.47-.45-.66s-.41-.34-.66-.45-.52-.16-.81-.16h-.74v4.14h.74Z"/>
    <path d="M132.49,123.07h-.81l2.39-5.62h.69l2.38,5.62h-.81l-.84-1.99h-2.16l-.84,1.99ZM133.64,120.35h1.56l-.78-1.8-.77,1.8Z"/>
    <path d="M141.89,120.26c0,.38-.07.75-.22,1.09-.15.34-.35.64-.6.89s-.55.46-.89.61c-.34.15-.7.22-1.09.22h-1.5v-5.62h1.5c.38,0,.75.07,1.09.22.34.15.64.35.89.61.25.26.45.55.6.89.15.34.22.7.22,1.09ZM139.06,122.33c.29,0,.56-.05.81-.16s.47-.26.66-.44c.19-.19.34-.41.45-.66s.16-.52.16-.8-.06-.56-.16-.81c-.11-.25-.26-.47-.45-.66s-.41-.34-.66-.45-.52-.16-.81-.16h-.74v4.14h.74Z"/>
    <path d="M147.07,122.58l-1.74-3.33v3.81h-.73v-5.62h.7l2.13,4.15,2.13-4.15h.7v5.62h-.74v-3.82l-1.74,3.34h-.7Z"/>
    <path d="M151.5,123.07h-.81l2.39-5.62h.69l2.38,5.62h-.81l-.84-1.99h-2.16l-.84,1.99ZM152.65,120.35h1.56l-.78-1.8-.77,1.8Z"/>
    <path d="M160.68,119.47c0,.23-.04.45-.11.66-.07.21-.18.39-.31.56-.13.17-.29.31-.47.43-.18.12-.38.21-.6.26l1.54,1.7h-.98l-1.44-1.57h-.97v1.57h-.73v-5.62h2.04c.28,0,.55.05.79.16.25.11.46.25.64.43.18.18.33.4.44.64.11.25.16.51.16.78ZM157.33,120.76h1.31c.18,0,.35-.03.5-.1s.29-.16.41-.28c.12-.12.21-.25.28-.41s.1-.32.1-.5-.03-.35-.1-.5-.16-.29-.28-.41-.25-.21-.41-.28c-.16-.07-.32-.1-.5-.1h-1.31v2.58Z"/>
    <path d="M162.27,123.07h-.74v-5.62h.74v2.22l2.36-2.21h1.1l-2.16,1.99,2.21,3.62h-.85l-1.92-3.12-.74.69v2.42Z"/>
    <path d="M169.77,123.07h-3.47v-5.62h3.47v.74h-2.74v1.7h2.26v.74h-2.26v1.71h2.74v.74Z"/>
    <path d="M174.09,117.45v.74h-1.67v4.88h-.74v-4.88h-1.67v-.74h4.08Z"/>
    <path d="M175.28,123.07h-.73v-5.62h.73v5.62Z"/>
    <path d="M180.42,117.45v5.62h-.7l-2.82-4.2v4.2h-.73v-5.62h.69l2.82,4.21v-4.21h.74Z"/>
    <path d="M186.89,120.24c0,.4-.08.77-.23,1.12-.15.35-.36.66-.61.92-.26.26-.56.47-.91.62-.35.15-.73.23-1.13.23s-.77-.08-1.12-.23-.66-.36-.92-.62-.47-.57-.62-.92c-.15-.35-.23-.73-.23-1.12s.08-.77.23-1.13c.15-.35.36-.66.63-.92.26-.26.57-.47.93-.62.36-.15.74-.23,1.14-.23.47,0,.89.11,1.28.33.39.22.77.55,1.14,1l-.58.47c-.29-.36-.59-.63-.89-.8-.3-.17-.62-.25-.96-.25-.3,0-.59.06-.85.17-.27.11-.5.27-.69.46-.2.19-.35.42-.47.68s-.17.54-.17.84.06.58.17.84.27.49.46.68c.19.19.42.35.68.46s.54.17.84.17c.26,0,.51-.04.75-.13.24-.09.45-.21.64-.37.19-.16.34-.35.47-.56s.21-.45.24-.71h-1.47v-.74h2.26v.37Z"/>
    <path d="M194.19,117.45l-2.16,3.02v2.59s-.74,0-.74,0v-2.59l-2.16-3.02h.91l1.63,2.26,1.63-2.26h.9Z"/>
    <path d="M199.35,123.15c-.4,0-.78-.08-1.14-.23-.35-.15-.66-.36-.92-.62-.26-.26-.47-.57-.62-.92-.15-.35-.23-.73-.23-1.12s.08-.78.23-1.13c.15-.35.36-.66.62-.92.26-.26.57-.47.92-.62.35-.15.73-.23,1.14-.23.15,0,.3.01.45.04.15.03.3.07.44.12.15.05.3.12.47.21.16.09.34.19.52.31l-.41.62c-.29-.21-.55-.36-.79-.44s-.46-.12-.69-.12c-.3,0-.58.06-.84.17-.27.11-.5.27-.69.46-.19.19-.35.42-.46.68s-.17.54-.17.84.06.58.17.84.27.49.46.68c.19.19.42.35.69.46.27.11.55.17.84.17.12,0,.24-.01.35-.03s.22-.05.34-.1c.12-.04.24-.1.36-.17.13-.07.27-.16.42-.26l.41.62c-.18.12-.36.23-.51.31s-.31.15-.46.21-.3.09-.44.12c-.15.03-.3.04-.46.04Z"/>
    <path d="M204.38,117.37c.39,0,.76.08,1.11.23s.65.36.92.63.47.57.63.92.23.72.23,1.1-.08.76-.23,1.11c-.15.35-.36.66-.63.93s-.57.47-.92.63c-.35.16-.72.23-1.11.23s-.76-.08-1.11-.23-.66-.37-.92-.63-.47-.57-.63-.93c-.15-.35-.23-.72-.23-1.11s.08-.76.23-1.1.36-.65.63-.92.57-.47.92-.63c.35-.15.72-.23,1.11-.23ZM204.38,122.41c.29,0,.57-.06.82-.17s.49-.27.68-.47.35-.43.47-.69c.11-.26.17-.54.17-.83s-.06-.57-.17-.82c-.12-.26-.27-.48-.46-.68-.19-.19-.42-.35-.68-.46-.26-.11-.53-.17-.82-.17s-.57.06-.83.17c-.26.12-.49.27-.69.46-.2.19-.35.42-.47.68s-.17.53-.17.82.06.57.17.83.27.49.47.69c.2.2.43.35.69.47s.54.17.83.17Z"/>
    <path d="M210.44,122.58l-1.74-3.33v3.81h-.73v-5.62h.7l2.13,4.15,2.13-4.15h.7v5.62h-.74v-3.82l-1.74,3.34h-.7Z"/>
    <path d="M216.63,122.41c.19,0,.38-.04.55-.11.17-.07.33-.18.46-.3.13-.13.23-.28.31-.45s.11-.36.11-.55v-3.54h.74v3.54c0,.3-.06.58-.17.84s-.27.49-.46.69c-.19.19-.42.35-.69.46s-.54.17-.84.17-.58-.06-.84-.17c-.26-.11-.49-.27-.69-.46-.19-.19-.35-.42-.46-.69s-.17-.54-.17-.84v-3.54h.74v3.54c0,.19.04.38.11.55s.18.32.31.45c.13.13.28.23.46.3s.36.11.55.11Z"/>
    <path d="M223.9,117.45v5.62h-.7l-2.82-4.2v4.2h-.73v-5.62h.69l2.82,4.21v-4.21h.74Z"/>
    <path d="M225.51,123.07h-.73v-5.62h.73v5.62Z"/>
    <path d="M229.11,123.15c-.4,0-.78-.08-1.14-.23-.35-.15-.66-.36-.92-.62-.26-.26-.47-.57-.62-.92-.15-.35-.23-.73-.23-1.12s.08-.78.23-1.13c.15-.35.36-.66.62-.92.26-.26.57-.47.92-.62.35-.15.73-.23,1.14-.23.15,0,.3.01.45.04.15.03.3.07.44.12.15.05.3.12.47.21.16.09.34.19.52.31l-.41.62c-.29-.21-.55-.36-.79-.44s-.46-.12-.69-.12c-.3,0-.58.06-.84.17-.27.11-.5.27-.69.46-.19.19-.35.42-.46.68s-.17.54-.17.84.06.58.17.84.27.49.46.68c.19.19.42.35.69.46.27.11.55.17.84.17.12,0,.24-.01.35-.03s.22-.05.34-.1c.12-.04.24-.1.36-.17.13-.07.27-.16.42-.26l.41.62c-.18.12-.36.23-.51.31s-.31.15-.46.21-.3.09-.44.12c-.15.03-.3.04-.46.04Z"/>
    <path d="M232.06,123.07h-.81l2.39-5.62h.69l2.38,5.62h-.81l-.84-1.99h-2.16l-.84,1.99ZM233.21,120.35h1.56l-.78-1.8-.77,1.8Z"/>
    <path d="M239.69,123.15c-.4,0-.78-.08-1.14-.23-.35-.15-.66-.36-.92-.62s-.47-.57-.62-.92c-.15-.35-.23-.73-.23-1.12s.08-.78.23-1.13c.15-.35.36-.66.62-.92.26-.26.57-.47.92-.62.35-.15.73-.23,1.14-.23.15,0,.3.01.45.04.15.03.3.07.44.12.15.05.3.12.47.21.16.09.34.19.52.31l-.41.62c-.29-.21-.55-.36-.79-.44s-.46-.12-.69-.12c-.3,0-.58.06-.84.17-.27.11-.5.27-.69.46-.19.19-.35.42-.46.68s-.17.54-.17.84.06.58.17.84.27.49.46.68c.19.19.42.35.69.46.27.11.55.17.84.17.12,0,.24-.01.35-.03s.22-.05.34-.1c.12-.04.24-.1.36-.17.13-.07.27-.16.42-.26l.41.62c-.18.12-.36.23-.51.31s-.31.15-.46.21-.3.09-.44.12c-.15.03-.3.04-.46.04Z"/>
    <path d="M243,123.07h-.73v-5.62h.73v5.62Z"/>
    <path d="M246.63,117.37c.39,0,.76.08,1.11.23.35.15.65.36.92.63.26.26.47.57.63.92s.23.72.23,1.1-.08.77-.23,1.12c-.15.35-.36.66-.63.92-.26.27-.57.48-.92.63-.35.15-.72.23-1.11.23s-.76-.08-1.11-.23-.66-.36-.92-.63c-.26-.27-.47-.57-.63-.92-.15-.35-.23-.72-.23-1.12s.08-.76.23-1.1.36-.65.63-.92c.26-.26.57-.47.92-.63.35-.15.72-.23,1.11-.23ZM246.63,122.41c.29,0,.57-.06.82-.17s.49-.27.68-.47c.2-.2.35-.43.47-.69s.17-.54.17-.83-.06-.57-.17-.82-.27-.48-.46-.68-.42-.35-.68-.46c-.26-.11-.53-.17-.82-.17s-.57.06-.83.17c-.26.12-.49.27-.69.46-.2.19-.36.42-.47.68-.11.26-.17.53-.17.82s.06.57.17.83c.12.26.27.49.47.69.2.2.43.35.69.47s.54.17.83.17ZM246.97,115.9h.73l-.77,1.21-.6-.02.64-1.2Z"/>
    <path d="M254.5,117.45v5.62h-.7l-2.82-4.2v4.2h-.73v-5.62h.69l2.82,4.21v-4.21h.74Z"/>
  </g>
  <g>
    <path d="M118.14,85.63c5.65.75,8.48,3.03,8.48,6.82,0,2.06-.76,3.72-2.29,4.99-1.55,1.29-3.61,1.93-6.18,1.93-2.73,0-4.88-.69-6.45-2.06-1.57-1.42-2.36-3.37-2.36-5.85h3.32c0,3.17,1.83,4.75,5.49,4.75,1.6,0,2.86-.34,3.79-1.03.91-.66,1.36-1.57,1.36-2.73s-.44-1.95-1.33-2.53c-.78-.49-2.05-.86-3.82-1.13-5.43-.75-8.15-2.97-8.15-6.65,0-1.99.71-3.6,2.13-4.82,1.42-1.26,3.31-1.89,5.69-1.89,2.53,0,4.51.68,5.95,2.03,1.46,1.37,2.19,3.27,2.19,5.69h-3.32c0-3.04-1.61-4.55-4.82-4.55-1.4,0-2.5.33-3.32,1-.78.64-1.16,1.5-1.16,2.56,0,1.91,1.61,3.07,4.82,3.49Z"/>
    <path d="M138.75,82.41c2.13,0,3.86.71,5.19,2.13,1.31,1.4,1.96,3.18,1.96,5.35v9.48h-3.32v-9.14c0-1.44-.42-2.57-1.26-3.39-.82-.84-1.95-1.26-3.39-1.26s-2.57.42-3.39,1.26c-.84.82-1.26,1.95-1.26,3.39v9.14h-3.32v-23.27h3.32v8.78c1.35-1.64,3.18-2.46,5.49-2.46Z"/>
    <path d="M183.14,82.74v16.62h-3.32v-2.19c-1.6,1.68-3.59,2.53-5.98,2.53s-4.34-.82-5.92-2.46c-1.6-1.66-2.39-3.72-2.39-6.18s.8-4.52,2.39-6.18c1.57-1.64,3.55-2.46,5.92-2.46s4.39.84,5.98,2.53v-2.19h3.32ZM174.33,96.54c1.62,0,2.94-.51,3.96-1.53,1.02-1.02,1.53-2.34,1.53-3.96s-.51-2.94-1.53-3.96c-1.02-1.02-2.34-1.53-3.96-1.53s-2.94.51-3.96,1.53c-1.02,1.02-1.53,2.34-1.53,3.96s.51,2.94,1.53,3.96c1.02,1.02,2.34,1.53,3.96,1.53Z"/>
    <path d="M190.78,85.47c.98-2.04,2.75-3.06,5.32-3.06v3.32c-3.55,0-5.32,1.66-5.32,4.99v8.64h-3.32v-16.62h3.32v2.73Z"/>
    <polygon points="161.19 82.74 156.21 97.4 151.22 82.74 147.73 82.74 153.38 99.36 155.54 99.36 153.76 104.04 150.43 112.76 153.66 112.86 156.89 104.22 164.68 82.74 161.19 82.74"/>
  </g>
  <g>
    <path class="uuid-b37ec7b3-c500-44d7-a732-cfaca7cd7f1f" d="M167.12,9.79c-.14-.06-.28-.11-.42-.16-2.58-.93-5.38-1.39-8.3-1.27-11.35.45-20.53,9.67-20.95,21.02-.36,9.75,5.69,18.15,14.26,21.32-.01-.01-.03-.02-.04-.03.6.2,1.26.26,1.95.12,1.59-.32,2.82-1.67,2.98-3.28.16-1.51-.58-2.86-1.75-3.58-.28-.18-1.77-.67-2.17-.87-4.68-2.35-7.9-7.2-7.9-12.79,0-7.9,6.41-14.31,14.31-14.31,1.86,0,5.25.99,5.24.98.67.23,1.42.29,2.2.09,1.52-.39,2.67-1.69,2.86-3.24.21-1.77-.78-3.33-2.27-3.99Z"/>
    <g>
      <path class="uuid-53d549b4-9f9c-40de-a441-7adbbc1ff735" d="M177.63,27.33s0,0,0,0c-.1-.02-.34-.06-.37-.06-.06,0-.12,0-.17-.01-.08,0-.17-.01-.25-.01,0,0-.3.01-.44.03,0,0-.01,0-.02,0-.14.02-.28.04-.41.07h0s0,0,0,0c-.32.07-.62.18-.91.33-.01,0-.19.1-.27.15-.03.02-.06.03-.08.05-.07.04-.26.18-.29.2-.06.05-.24.2-.27.23-.05.05-.11.1-.16.15-.03.03-.19.21-.23.26-.04.05-.07.1-.11.15-.06.08-.12.17-.17.25-.04.06-.15.27-.18.31-.03.06-.06.12-.09.18-.02.05-.11.28-.13.34-.02.05-.08.29-.1.36-.01.05-.02.09-.03.14-.02.08-.05.33-.05.37-.01.13-.02.25-.02.38s0,.26.02.39c0,.04.04.3.06.38.01.05.02.1.04.15.02.07.03.14.05.21.02.06.1.29.12.35.02.06.05.11.07.17.03.06.14.28.17.33.03.05.06.1.09.14.04.06.17.25.21.29.05.06.2.24.23.27.06.06.11.12.17.17.02.02.21.19.28.24.01,0,.71.47,1.57.73.12.04.39.1.4.1,6.32.96,11.17,6.41,11.17,13,0,7.26-5.89,13.16-13.15,13.16-.06,0-8.67,0-8.67,0,.55-.68,1.05-1.38,1.51-2.12,2-3.22,3.16-7.03,3.16-11.1s-1.14-7.81-3.1-11.01c-1.45-2.37-3.36-4.42-5.6-6.05-1.52-1.11-5.2-2.79-5.3-2.83-.57-.24-1.22-.34-1.89-.28-1.85.16-3.38,1.62-3.61,3.46-.25,1.9.84,3.59,2.46,4.25,0,0,0,0,0,0,1,.32,1.96.76,2.84,1.3,2.67,1.64,4.71,4.2,5.67,7.24.4,1.26.62,2.59.62,3.98s-.22,2.73-.62,3.98c-.96,3.02-2.98,5.57-5.62,7.2-2.01,1.25-4.38,1.97-6.92,1.97h-17.83c-7.26,0-13.15-5.89-13.15-13.15,0-6.5,4.72-11.9,10.92-12.96.31-.05.67-.21.96-.32,0,0,0,0,0,0,.25-.12.49-.26.7-.42,0,0,.16-.13.23-.18,0,0,0,0,0,0,.13-.11.25-.23.36-.36.01-.01.13-.15.17-.21.03-.03.15-.2.19-.26.04-.07.09-.14.13-.21.03-.05.06-.11.09-.17.03-.06.13-.27.14-.32.03-.07.11-.29.12-.32.03-.11.06-.22.08-.33,0-.03.05-.28.06-.37,0-.04.03-.35.03-.47s-.02-.41-.02-.43c-.01-.11-.03-.23-.05-.34,0-.03-.01-.06-.02-.08-.02-.11-.05-.21-.08-.32,0-.03-.14-.39-.16-.43-.04-.08-.08-.16-.12-.24-.03-.05-.13-.23-.16-.27-.05-.08-.2-.29-.22-.31-.06-.07-.11-.14-.17-.21-.04-.05-.27-.27-.31-.31-.03-.03-.3-.25-.31-.26-.05-.04-.21-.15-.24-.16-.07-.04-.23-.14-.25-.15-.17-.09-.35-.17-.54-.24-.03-.01-.23-.08-.29-.09-.06-.02-.28-.07-.34-.08-.07-.01-.31-.05-.36-.05-.12-.01-.25-.02-.37-.02-.19,0-.78.08-.89.1-9.81,1.81-17.25,10.4-17.25,20.73,0,11.65,9.44,21.09,21.09,21.09.05,0,42.75,0,42.75,0,11.58-.08,20.94-9.48,20.94-21.08,0-10.41-7.55-19.06-17.48-20.77Z"/>
      <path class="uuid-485e58ba-6258-443d-840f-d2fee87969ae" d="M180.95,27.23s.01.01.01.02c.02,0,.01-.01-.01-.02Z"/>
    </g>
  </g>
</svg>